<svg width="25" height="31" viewBox="0 0 25 31" fill="none" xmlns="http://www.w3.org/2000/svg">
<path d="M22.2812 26.4639C21.069 28.2421 19.8152 30.0093 17.8355 30.0463C15.8871 30.0834 15.2625 28.8887 13.0393 28.8887C10.8137 28.8887 10.1175 30.0093 8.27798 30.0834C6.36679 30.1551 4.91355 28.1629 3.69139 26.3927C1.19457 22.7735 -0.711111 16.1592 1.85182 11.6955C3.12098 9.47872 5.39516 8.07615 7.85959 8.03913C9.73648 8.00448 11.5095 9.30844 12.6559 9.30844C13.8041 9.30844 15.9561 7.74288 18.2186 7.97251C19.1656 8.01175 21.8236 8.35531 23.5306 10.8609C23.3957 10.9498 20.358 12.7226 20.395 16.416C20.4322 20.8279 24.2491 22.2944 24.2934 22.3144C24.2589 22.4181 23.6832 24.408 22.2812 26.4639ZM13.9691 3.12596C15.017 1.89429 16.7874 0.978182 18.2485 0.916626C18.4351 2.62747 17.749 4.34068 16.7356 5.57518C15.7202 6.80748 14.058 7.76741 12.4267 7.63924C12.205 5.96542 13.0272 4.21977 13.9691 3.12596Z" fill="white"/>
</svg>
