<svg width="63" height="55" viewBox="0 0 63 55" fill="none" xmlns="http://www.w3.org/2000/svg">
<path d="M41.011 42.6782C52.7962 42.6782 62.3501 33.1244 62.3501 21.3391C62.3501 9.55384 52.7962 0 41.011 0C29.2257 0 19.6719 9.55384 19.6719 21.3391C19.6719 33.1244 29.2257 42.6782 41.011 42.6782Z" fill="#F9A825"/>
<path d="M1 16.2185V50.7321C1 52.0579 2.07481 53.1327 3.40065 53.1327H48.8601" stroke="#002058" stroke-width="2" stroke-linecap="round"/>
<path d="M18.7193 27.1738C19.811 27.1738 20.6961 28.0589 20.6961 29.1507V45.536C20.6961 46.6278 19.811 47.5128 18.7193 47.5128C17.6275 47.5128 16.7424 46.6278 16.7424 45.536V29.1507C16.7424 28.0589 17.6275 27.1738 18.7193 27.1738ZM28.6267 32.5086C29.7185 32.5086 30.6036 33.3937 30.6036 34.4855V45.536C30.6036 46.6278 29.7185 47.5129 28.6267 47.5129C27.5349 47.5129 26.6498 46.6278 26.6498 45.536V34.4855C26.6498 33.3937 27.5349 32.5086 28.6267 32.5086ZM8.81182 37.8434C9.90361 37.8434 10.7887 38.7285 10.7887 39.8203V45.536C10.7887 46.6278 9.90361 47.5129 8.81182 47.5129C7.72003 47.5129 6.83496 46.6278 6.83496 45.536V39.8203C6.83496 38.7285 7.72003 37.8434 8.81182 37.8434ZM38.5341 19.1716C39.6259 19.1716 40.511 20.0567 40.511 21.1485V45.5359C40.511 46.6277 39.6259 47.5127 38.5341 47.5127C37.4423 47.5127 36.5573 46.6277 36.5573 45.5359V21.1485C36.5573 20.0567 37.4423 19.1716 38.5341 19.1716Z" fill="#002058" stroke="#002058"/>
</svg>
