<svg width="63" height="42" viewBox="0 0 63 42" fill="none" xmlns="http://www.w3.org/2000/svg">
<path fill-rule="evenodd" clip-rule="evenodd" d="M45.038 31.2787C43.8767 24.363 37.712 19.0703 30.2604 19.0703C22.8059 19.0703 16.6393 24.3672 15.4814 31.2869C24.7764 31.1778 37.3441 31.175 45.038 31.2787Z" fill="#F9A825" stroke="#363F41" stroke-width="2"/>
<path d="M1 40.3499H61.4669" stroke="#363F41" stroke-width="2" stroke-linecap="round"/>
<path fill-rule="evenodd" clip-rule="evenodd" d="M30.9013 0C32.5526 0 33.8914 1.33872 33.8914 2.99012V8.17299C33.8914 9.82439 32.5526 11.1631 30.9013 11.1631C29.2499 11.1631 27.9111 9.82439 27.9111 8.17299V2.99012C27.9111 1.33872 29.2499 0 30.9013 0Z" fill="#363F41"/>
<path fill-rule="evenodd" clip-rule="evenodd" d="M56.1417 10.3458C57.3094 11.5135 57.3094 13.4067 56.1417 14.5744L52.4768 18.2393C51.3091 19.407 49.4159 19.407 48.2482 18.2393C47.0805 17.0716 47.0805 15.1783 48.2482 14.0106L51.913 10.3458C53.0807 9.17806 54.974 9.17807 56.1417 10.3458Z" fill="#363F41"/>
<path fill-rule="evenodd" clip-rule="evenodd" d="M6.38679 10.3456C7.55451 9.17791 9.44775 9.17791 10.6155 10.3456L14.2803 14.0105C15.448 15.1782 15.448 17.0714 14.2803 18.2391C13.1126 19.4069 11.2194 19.4069 10.0516 18.2391L6.38679 14.5743C5.21908 13.4066 5.21908 11.5133 6.38679 10.3456Z" fill="#363F41"/>
</svg>
