<svg width="136" height="36" viewBox="0 0 136 36" fill="none" xmlns="http://www.w3.org/2000/svg">
<path d="M31.4059 1C31.4059 1 31.4059 6.62133 31.4059 17.864C31.4059 40.712 1 40.712 1 17.864C1 6.984 1 1.544 1 1.544H11.8595V34.5113" stroke="#0062FF" stroke-width="2"/>
<path fill-rule="evenodd" clip-rule="evenodd" d="M54.5889 11.1341V20.9651C54.5889 22.0875 54.3376 23.0713 53.8349 23.9165C53.3322 24.7618 52.6059 25.4095 51.656 25.8599C50.7061 26.3102 49.5829 26.5354 48.2863 26.5354C46.331 26.5354 44.8125 26.0348 43.7309 25.0337C42.6492 24.0326 42.1084 22.6625 42.1084 20.9236V11.1341H45.3221V20.4351C45.3221 21.606 45.5579 22.4651 46.0294 23.0124C46.5009 23.5597 47.2809 23.8334 48.3695 23.8334C49.4234 23.8334 50.1878 23.558 50.6628 23.0072C51.1377 22.4564 51.3752 21.5921 51.3752 20.4143V11.1341H54.5889ZM68.796 26.3275H65.6238V19.5414C65.6238 18.7031 65.4748 18.0744 65.1766 17.6552C64.8785 17.2361 64.4035 17.0265 63.7517 17.0265C62.8642 17.0265 62.2229 17.3227 61.8277 17.915C61.4324 18.5074 61.2348 19.4894 61.2348 20.8612V26.3275H58.0627V14.709H60.486L60.9124 16.1951H61.0892C61.4428 15.6339 61.9299 15.2096 62.5505 14.9221C63.1711 14.6345 63.8765 14.4908 64.667 14.4908C66.0191 14.4908 67.0452 14.8562 67.7455 15.5872C68.4458 16.3181 68.796 17.3729 68.796 18.7516V26.3275ZM76.7835 26.5354C73.1641 26.5354 71.3545 24.5505 71.3545 20.5806C71.3545 18.6061 71.8468 17.0975 72.8313 16.0548C73.8159 15.0121 75.2269 14.4908 77.0643 14.4908C78.4095 14.4908 79.6159 14.754 80.6837 15.2806L79.7476 17.7332C79.2484 17.5322 78.7839 17.3677 78.354 17.2395C77.9241 17.1113 77.4942 17.0473 77.0643 17.0473C75.4141 17.0473 74.589 18.2181 74.589 20.5598C74.589 22.8323 75.4141 23.9685 77.0643 23.9685C77.6745 23.9685 78.2396 23.8871 78.7596 23.7243C79.2796 23.5615 79.7996 23.3068 80.3197 22.9604V25.6728C79.8066 25.9984 79.2883 26.2236 78.7648 26.3483C78.2413 26.473 77.5809 26.5354 76.7835 26.5354ZM86.1855 26.3275H83.0134V10.1572H86.1855V26.3275ZM92.041 20.4975C92.041 21.6476 92.2299 22.517 92.6078 23.1059C92.9857 23.6948 93.601 23.9893 94.4539 23.9893C95.2998 23.9893 95.9082 23.6966 96.2792 23.1111C96.6501 22.5257 96.8356 21.6545 96.8356 20.4975C96.8356 19.3474 96.6484 18.4849 96.274 17.9098C95.8996 17.3348 95.2859 17.0473 94.4331 17.0473C93.5872 17.0473 92.977 17.333 92.6026 17.9046C92.2282 18.4762 92.041 19.3405 92.041 20.4975ZM100.134 20.4975C100.134 22.3889 99.6322 23.868 98.629 24.935C97.6259 26.0019 96.2291 26.5354 94.4388 26.5354C93.3172 26.5354 92.328 26.2911 91.4711 25.8027C90.6142 25.3143 89.9559 24.6128 89.4961 23.6983C89.0363 22.7838 88.8064 21.7168 88.8064 20.4975C88.8064 18.5992 89.3045 17.1235 90.3007 16.0704C91.2969 15.0173 92.6972 14.4908 94.5015 14.4908C95.6231 14.4908 96.6123 14.7333 97.4691 15.2182C98.326 15.7032 98.9843 16.3995 99.4441 17.3071C99.9039 18.2147 100.134 19.2781 100.134 20.4975ZM110.086 26.3275L109.472 24.7479H109.389C108.855 25.4199 108.306 25.8858 107.74 26.1456C107.175 26.4055 106.439 26.5354 105.53 26.5354C104.414 26.5354 103.535 26.2167 102.894 25.5793C102.252 24.9419 101.932 24.0343 101.932 22.8565C101.932 21.6233 102.363 20.714 103.227 20.1286C104.09 19.5431 105.392 19.2192 107.132 19.1569L109.15 19.0945V18.5853C109.15 17.4075 108.547 16.8186 107.34 16.8186C106.411 16.8186 105.319 17.0992 104.064 17.6604L103.013 15.5196C104.352 14.8199 105.835 14.47 107.465 14.47C109.025 14.47 110.221 14.8095 111.053 15.4884C111.885 16.1674 112.301 17.1997 112.301 18.5853V26.3275H110.086ZM109.15 20.9443L107.922 20.9859C107 21.0136 106.314 21.1799 105.863 21.4847C105.412 21.7896 105.187 22.2538 105.187 22.8773C105.187 23.771 105.7 24.2179 106.726 24.2179C107.461 24.2179 108.049 24.0066 108.489 23.584C108.93 23.1613 109.15 22.6002 109.15 21.9004V20.9443ZM118.588 20.009L119.971 18.2424L123.227 14.709H126.804L122.186 19.7492L127.085 26.3275H123.424L120.075 21.6198L118.713 22.711V26.3275H115.541V10.1572H118.713V17.3694L118.546 20.009H118.588ZM131.239 12.9107H130.597V10.7263H129.843V10.1572H132V10.7263H131.239V12.9107ZM133.412 12.9107L132.783 10.8905H132.756L132.771 11.3144V12.9107H132.15V10.1572H133.091L133.702 12.1049L134.35 10.1572H135.265V12.9107H134.624V11.3526L134.64 10.8905H134.617L133.953 12.9107H133.412Z" fill="#0062FF"/>
</svg>
