<svg width="31" height="35" viewBox="0 0 31 35" fill="none" xmlns="http://www.w3.org/2000/svg">
<path d="M19.8744 7.28875H18.416V5.83042H19.8744V7.28875ZM12.5827 7.28875H11.1243V5.83042H12.5827V7.28875ZM20.6502 3.1442L22.5519 1.24251C22.8362 0.956695 22.8362 0.495803 22.5519 0.209993C22.2675 -0.0743923 21.8052 -0.0743923 21.5208 0.209993L19.3669 2.36545C18.1987 1.78795 16.8892 1.45542 15.4994 1.45542C14.1023 1.45542 12.7869 1.79231 11.6158 2.37276L9.4531 0.209993C9.16729 -0.0743923 8.7064 -0.0743923 8.4206 0.209993C8.13621 0.495803 8.13621 0.956695 8.4206 1.24251L10.3339 3.15433C8.16389 4.74691 6.74935 7.30771 6.74935 10.2054H24.2494C24.2494 7.30184 22.8289 4.73524 20.6502 3.1442ZM27.8952 11.6638C26.6877 11.6638 25.7077 12.6423 25.7077 13.8513V24.0595C25.7077 25.2685 26.6877 26.247 27.8952 26.247C29.1027 26.247 30.0827 25.2685 30.0827 24.0595V13.8513C30.0827 12.6423 29.1027 11.6638 27.8952 11.6638ZM3.10352 11.6638C1.89602 11.6638 0.916016 12.6423 0.916016 13.8513V24.0595C0.916016 25.2685 1.89602 26.247 3.10352 26.247C4.31102 26.247 5.29102 25.2685 5.29102 24.0595V13.8513C5.29102 12.6423 4.31102 11.6638 3.10352 11.6638ZM6.74935 26.247C6.74935 27.0507 7.4041 27.7053 8.20768 27.7053H9.66602V32.8095C9.66602 34.0185 10.646 34.997 11.8535 34.997C13.061 34.997 14.041 34.0185 14.041 32.8095V27.7053H16.9577V32.8095C16.9577 34.0185 17.9377 34.997 19.1452 34.997C20.3527 34.997 21.3327 34.0185 21.3327 32.8095V27.7053H22.791C23.5946 27.7053 24.2494 27.0507 24.2494 26.247V11.6638H6.74935V26.247Z" fill="white"/>
</svg>
