<svg width="31" height="31" viewBox="0 0 31 31" fill="none" xmlns="http://www.w3.org/2000/svg">
<path d="M21.8592 18.4137C21.9787 17.4558 22.0619 16.4874 22.0619 15.4971C22.0619 14.5069 21.9787 13.5385 21.8592 12.5805H26.7825C27.0246 13.5139 27.166 14.4879 27.166 15.4971C27.166 16.5064 27.0246 17.4804 26.7825 18.4137H21.8592ZM19.2808 26.5235C20.1558 24.9004 20.8208 23.1533 21.2919 21.3304H25.5925C24.1939 23.7425 21.9598 25.6033 19.2808 26.5235ZM18.9104 18.4137H12.0869C11.9483 17.4585 11.8535 16.4904 11.8535 15.4971C11.8535 14.504 11.9483 13.5358 12.0869 12.5805H18.9104C19.0489 13.5358 19.1452 14.504 19.1452 15.4971C19.1452 16.4904 19.0489 17.4585 18.9104 18.4137ZM15.4964 27.1112C14.2831 25.3612 13.3352 23.4174 12.7125 21.3304H18.2848C17.6606 23.4174 16.7127 25.3612 15.4964 27.1112ZM9.70395 9.66382H5.40331C6.80041 7.2488 9.03454 5.38504 11.715 4.46779C10.84 6.09087 10.175 7.83796 9.70395 9.66382ZM5.40331 21.3304H9.70395C10.175 23.1548 10.84 24.9035 11.715 26.5265C9.03454 25.6093 6.80041 23.7456 5.40331 21.3304ZM4.21329 18.4137C3.9727 17.4804 3.83268 16.5064 3.83268 15.4971C3.83268 14.4879 3.9727 13.5139 4.21329 12.5805H9.13811C9.01852 13.5385 8.93685 14.5069 8.93685 15.4971C8.93685 16.4874 9.01852 17.4558 9.13811 18.4137H4.21329ZM15.4964 3.883C16.7127 5.63301 17.6606 7.5769 18.2848 9.66382H12.7125C13.3352 7.5769 14.2831 5.63301 15.4964 3.883ZM25.5925 9.66382H21.2919C20.8208 7.8409 20.1558 6.09382 19.2808 4.47072C21.9598 5.3909 24.1939 7.25175 25.5925 9.66382ZM15.4906 0.913818C7.43183 0.913818 0.916016 7.44276 0.916016 15.4971C0.916016 23.5516 7.43183 30.0804 15.4906 30.0804C23.5508 30.0804 30.0827 23.5516 30.0827 15.4971C30.0827 7.44276 23.5508 0.913818 15.4906 0.913818Z" fill="white"/>
</svg>
